<?xml version="1.0" encoding="UTF-8" standalone="no"?>
<svg
   width="31"
   height="32"
   viewBox="0 0 31 32"
   fill="none"
   version="1.1"
   id="svg1600"
   sodipodi:docname="Left.svg"
   inkscape:version="1.2.2 (732a01da63, 2022-12-09)"
   xmlns:inkscape="http://www.inkscape.org/namespaces/inkscape"
   xmlns:sodipodi="http://sodipodi.sourceforge.net/DTD/sodipodi-0.dtd"
   xmlns="http://www.w3.org/2000/svg"
   xmlns:svg="http://www.w3.org/2000/svg">
  <defs
     id="defs1604" />
  <sodipodi:namedview
     id="namedview1602"
     pagecolor="#ffffff"
     bordercolor="#000000"
     borderopacity="0.25"
     inkscape:showpageshadow="2"
     inkscape:pageopacity="0.0"
     inkscape:pagecheckerboard="0"
     inkscape:deskcolor="#d1d1d1"
     showgrid="false"
     inkscape:zoom="25.4375"
     inkscape:cx="15.5086"
     inkscape:cy="16"
     inkscape:window-width="1920"
     inkscape:window-height="1017"
     inkscape:window-x="1432"
     inkscape:window-y="-8"
     inkscape:window-maximized="1"
     inkscape:current-layer="svg1600" />
  <path
     style="color:#000000;clip-rule:evenodd;fill:#1e2e36;fill-rule:evenodd;-inkscape-stroke:none"
     d="M 15.5,0.5 C 6.9455184,0.5 0,7.4455184 0,16 0,24.554511 6.9455196,31.5 15.5,31.5 24.054509,31.5 31,24.554509 31,16 31,7.4455196 24.054511,0.5 15.5,0.5 Z m 0,1 C 23.514073,1.5 30,7.985957 30,16 30,24.014074 23.514074,30.5 15.5,30.5 7.485957,30.5 1,24.014073 1,16 1,7.9859582 7.4859582,1.5 15.5,1.5 Z"
     id="path1596" />
  <path
     d="M11.6808 15.8695C11.6808 15.6592 11.7591 15.4488 11.9154 15.2884L16.8348 10.2408C17.1478 9.91973 17.6552 9.91973 17.968 10.2408C18.2808 10.5618 18.2808 11.0823 17.968 11.4034L13.615 15.8695L17.9678 20.3357C18.2806 20.6568 18.2806 21.1773 17.9678 21.4982C17.655 21.8194 17.1476 21.8194 16.8347 21.4982L11.9152 16.4507C11.759 16.2902 11.6808 16.0799 11.6808 15.8695Z"
     fill="#1E2E36"
     id="path2137" />
</svg>
